<?xml version="1.0" encoding="utf-8"?>
<!-- Generator: Adobe Illustrator 28.3.0, SVG Export Plug-In . SVG Version: 6.00 Build 0)  -->
<svg version="1.1" id="h" xmlns="http://www.w3.org/2000/svg" xmlns:xlink="http://www.w3.org/1999/xlink" x="0px" y="0px"
	 viewBox="0 0 720 720" style="enable-background:new 0 0 720 720;" xml:space="preserve"
	 fill="#1F4751">
<style type="text/css">

</style>
<g>
	<g>
		<path class="st0" d="M576.69,470.47c-3.35,8.48-5.92,15.63-7.74,21.44c1.21,0.55,3.03,0.94,5.47,1.19
			c2.42,0.28,5.46,0.41,9.11,0.41c4.24,0,8.5-0.66,12.75-1.99c4.25-1.31,8.5-3.03,12.76-5.16c4.24-2.11,7.59-4.23,10.01-6.36h5.47
			c0,2.67-0.45,8.49-1.37,17.49c-0.92,9.01-2.89,18.01-5.92,27.01c-6.7,24.38-14.12,43.85-22.32,58.41
			c-8.2,14.58-17.46,26.36-27.79,35.36c-10.34,9.01-22.93,16.42-37.82,22.24c-14.89,5.83-31.74,8.75-50.56,8.75
			c-21.87,0-42.07-7.16-60.6-21.46c-18.52-14.29-32.5-32.17-41.91-53.63c-9.42-21.44-11.7-43.3-6.82-65.55
			c3.03-12.17,8.5-26.61,16.4-43.3c7.89-16.69,17.31-33.89,28.25-51.64c10.93-17.74,22.17-34.29,33.71-49.66
			c-3.04-1.07-6.54-1.71-10.48-1.99c-3.95-0.25-8.06-0.4-12.3-0.4c-17.01,0-33.25,2.78-48.75,8.34
			c-15.49,5.56-29.31,13.39-41.45,23.44c-1.88,1.55-3.71,3.15-5.5,4.79c-10.88,26.58-20.45,52-28.67,76.25
			c-8.82,25.96-16.11,52.57-21.87,79.85c-5.77,27.29-9.56,56.82-11.38,88.59c-6.7,1.06-13.53,1.99-20.51,2.78
			c-6.99,0.8-13.83,1.46-20.51,1.99c-6.7,0.52-13.67,0.78-20.96,0.78c-32.81,0-58.62-5.83-77.44-17.47
			c-18.85-11.65-30.82-27.68-35.99-48.07c-5.15-20.38-4.41-43.57,2.27-69.52c9.11-34.96,19.59-67.4,31.44-97.34
			c11.84-29.91,23.84-58.79,35.99-86.6c12.15-27.81,23.37-56.02,33.72-84.63c10.32-28.59,19.12-58.79,26.42-90.58
			c4.86-21.18,7.89-40.65,9.11-58.4c1.21-17.73,0.6-34.02-1.82-48.86c8.5-1.59,16.55-3.04,24.14-4.36
			c7.6-1.32,15.34-2.25,23.24-2.78c7.89-0.52,16.08-0.8,24.6-0.8c34.62,0,61.95,5.16,82,15.5c20.04,10.33,32.65,25.82,37.81,46.47
			c5.15,20.66,2.28,47.16-8.66,79.46c-14.57,43.98-28.7,83.16-42.36,117.6c-1.06,2.67-2.11,5.31-3.15,7.94h6.34
			c16.4-21.18,34.77-40.12,55.13-56.81c20.34-16.69,41.14-29.93,62.42-39.73c21.25-9.79,41-14.7,59.22-14.7
			c13.97,0,26.56,4.64,37.81,13.91c11.23,9.28,20.65,21.32,28.25,36.15c7.6,14.84,12.44,30.99,14.58,48.47
			c2.12,17.49,0.75,34.18-4.1,50.07c-3.64,11.65-7.75,23.58-12.3,35.75c-4.55,12.19-9.11,23.83-13.67,34.96
			c-4.55,11.12-8.98,21.44-13.21,30.99C583.53,453.53,580.02,462,576.69,470.47z"/>
	</g>
</g>
</svg>
