<?xml version="1.0" encoding="utf-8"?>
<!-- Generator: Adobe Illustrator 28.3.0, SVG Export Plug-In . SVG Version: 6.00 Build 0)  -->
<svg version="1.1" id="star" xmlns="http://www.w3.org/2000/svg" xmlns:xlink="http://www.w3.org/1999/xlink" x="0px" y="0px"
	 viewBox="0 0 522.42 533.07" style="enable-background:new 0 0 522.42 533.07;" xml:space="preserve">
<style type="text/css">
	.st0{fill:#010101;}
</style>
<path class="st0" d="M304.92,4.91c33.98,0,57.6,8.67,70.86,26c13.25,17.34,12.39,44.71-2.56,82.08c-3.4,9.53-7.65,18.71-12.74,27.54
	c-5.1,8.85-10.21,17.18-15.3,24.98c-5.1,7.83-10.04,15.14-14.78,21.93l5.09,3.06c14.95-12.9,29.58-25.32,43.85-37.22
	c14.27-11.89,29.39-23.97,45.38-36.21c15.96-12.23,33.14-25.49,51.49-39.76c9.51,6.8,17.33,14.12,23.46,21.92
	c6.11,7.83,11.22,17.51,15.3,29.06c8.82,26.51,9.17,49.64,1.01,69.34c-8.16,19.72-25.16,33.32-50.98,40.78
	c-13.61,4.08-26.51,7.48-38.75,10.19c-12.24,2.72-24.13,5.1-35.68,7.14c-11.58,2.05-24.15,3.75-37.73,5.1l-1.02,6.11
	c20.4,4.77,38.24,9.53,53.54,14.29s30.23,9.86,44.86,15.3c14.6,5.45,31.09,11.89,49.46,19.36c-3.42,12.24-7.83,23.46-13.26,33.65
	c-5.45,10.21-12.92,21.08-22.43,32.64c-21.77,26.51-42.32,41.81-61.68,45.87c-19.38,4.08-36.88-1.34-52.51-16.31
	c-8.16-8.16-15.3-15.97-21.42-23.46c-6.11-7.47-11.89-15.45-17.33-23.97c-5.45-8.49-11.56-18.17-18.35-29.06l-6.13,3.06
	c0,10.88-0.17,21.26-0.5,31.1c-0.36,9.86-0.36,19.21,0,28.05c0.33,8.84,0.5,18.02,0.5,27.52c0.68,14.96,1.54,27.54,2.56,37.73
	c1.01,10.19,2.36,19.56,4.08,28.05c1.69,8.51,4.23,17.51,7.65,27.02c-15.66,5.44-30.26,9.35-43.85,11.71
	c-13.59,2.39-29.24,3.57-46.9,3.57c-33.32,0-57.1-8.31-71.38-24.98c-14.27-16.65-12.24-44.35,6.11-83.1
	c4.08-9.5,8.82-18.86,14.27-28.03c5.44-9.18,11.22-18.7,17.34-28.56c6.11-9.85,12.57-19.87,19.38-30.08l-6.13-3.06
	c-18.35,15.64-35.17,29.93-50.47,42.83c-15.3,12.92-30.59,25.16-45.89,36.7c-15.3,11.56-32.11,23.8-50.48,36.7
	c-8.15-7.47-15.28-15.3-21.41-23.46c-6.11-8.15-10.88-17.66-14.27-28.54c-8.84-26.51-9.53-49.28-2.03-68.32
	c7.47-19.02,24.8-32.28,52-39.76c14.94-4.08,28.03-7.47,39.25-10.19c11.22-2.71,22.76-5.27,34.67-7.65
	c11.88-2.38,25.65-4.59,41.3-6.64l1.02-6.11c-19.04-5.44-36.88-10.36-53.54-14.78c-16.66-4.41-32.8-9.18-48.43-14.27
	c-15.64-5.1-32.29-11.05-49.97-17.84c4.08-11.56,9.34-23.79,15.81-36.72c6.46-12.9,14.09-24.8,22.94-35.68
	c17.66-21.75,36.03-33.47,55.06-35.18c19.03-1.69,37.05,4.59,54.05,18.86c8.16,6.13,15.45,12.59,21.92,19.38
	c6.44,6.8,12.74,13.76,18.86,20.9c6.11,7.15,11.88,15.48,17.33,24.99l6.13-3.06c0-7.48-0.18-15.97-0.51-25.5
	c-0.36-9.5-0.51-18.86-0.51-28.03c0-9.18-0.35-17.49-1.02-24.98c-0.68-21.75-2.39-38.41-5.1-49.97
	c-2.71-11.55-6.79-24.48-12.23-38.75c15.63-5.44,30.41-9.34,44.35-11.73C272.45,6.12,287.91,4.91,304.92,4.91z"/>
</svg>
